<mxfile host="65bd71144e">
    <diagram name="Страница — 1" id="8qEU0eRctsQ-b39IZOF6">
        <mxGraphModel dx="558" dy="584" grid="1" gridSize="10" guides="1" tooltips="1" connect="1" arrows="1" fold="1" page="1" pageScale="1" pageWidth="1169" pageHeight="827" math="0" shadow="0">
            <root>
                <mxCell id="0"/>
                <mxCell id="1" parent="0"/>
                <mxCell id="100" value="&lt;span style=&quot;font-size: 16px;&quot;&gt;&lt;font style=&quot;color: rgb(0, 0, 0);&quot;&gt;Каталог данных&lt;/font&gt;&lt;/span&gt;" style="rounded=1;whiteSpace=wrap;html=1;fontFamily=VK Sans Display;strokeColor=none;arcSize=12;fillColor=#F6F7F9;spacing=10;verticalAlign=top;spacingTop=0;spacingLeft=0;spacingBottom=0;fontStyle=1;arcSize=12;absoluteArcSize=1;labelBackgroundColor=none;" parent="1" vertex="1">
                    <mxGeometry x="1110" y="568.5" width="290" height="181.5" as="geometry"/>
                </mxCell>
                <mxCell id="2" value="&lt;font style=&quot;color: rgb(0, 0, 0);&quot;&gt;&lt;span style=&quot;font-size: 16px;&quot;&gt;Источники&lt;/span&gt;&lt;/font&gt;" style="rounded=1;whiteSpace=wrap;html=1;fontFamily=VK Sans Display;strokeColor=none;arcSize=12;fillColor=#F6F7F9;spacing=10;verticalAlign=top;spacingTop=0;spacingLeft=0;spacingBottom=0;fontStyle=1;arcSize=12;absoluteArcSize=1;labelBackgroundColor=none;" parent="1" vertex="1">
                    <mxGeometry x="40" y="580" width="340" height="580" as="geometry"/>
                </mxCell>
                <mxCell id="5" value="" style="rounded=1;whiteSpace=wrap;html=1;fontFamily=VK Sans Display;strokeColor=#E3E8F2;arcSize=12;fillColor=#FFF;spacing=12;verticalAlign=top;spacingTop=0;strokeWidth=4;spacingLeft=0;spacingBottom=0;fontStyle=1;absoluteArcSize=1;" parent="1" vertex="1">
                    <mxGeometry x="59" y="625.5" width="301" height="104.5" as="geometry"/>
                </mxCell>
                <mxCell id="3" value=" Операционные базы данных" style="shape=image;verticalLabelPosition=bottom;labelBackgroundColor=default;verticalAlign=top;aspect=fixed;imageAspect=0;image=data:image/svg+xml,PHN2ZyB4bWxucz0iaHR0cDovL3d3dy53My5vcmcvMjAwMC9zdmciIGZpbGw9Im5vbmUiIHZpZXdCb3g9IjAgMCAyOCAyOCIgaGVpZ2h0PSIyOCIgd2lkdGg9IjI4Ij4mI3hhOzxwYXRoIGZpbGw9IiMwMDc3RkYiIGQ9Ik00LjcwMDg4IDYuOTc3NDNDNC44MzA1MyA3Ljk4Mjc0IDUuMzE0MjIgOC44NzA1MSA2LjAyMDg3IDkuNTA2OTVDNS4zMTQyMiAxMC4xNDM0IDQuODMwNTMgMTEuMDMxMSA0LjcwMDg4IDEyLjAzNjVDNC42NjY2NiAxMi4zMDE4IDQuNjY2NjYgMTIuNjE3OSA0LjY2NjY2IDEzLjI1QzQuNjY2NjYgMTMuODgyMSA0LjY2NjY2IDE0LjE5ODIgNC43MDA4OCAxNC40NjM1QzQuODMwNTMgMTUuNDY4OSA1LjMxNDIyIDE2LjM1NjYgNi4wMjA4NyAxNi45OTMxQzUuMzE0MjIgMTcuNjI5NSA0LjgzMDUzIDE4LjUxNzMgNC43MDA4OCAxOS41MjI2QzQuNjY2NjYgMTkuNzg3OSA0LjY2NjY2IDIwLjEwNCA0LjY2NjY2IDIwLjczNjFDNC42NjY2NiAyMS4zNjgyIDQuNjY2NjYgMjEuNjg0MyA0LjcwMDg4IDIxLjk0OTZDNC45MzcxOCAyMy43ODIgNi4zNDk2MiAyNS4yMjM4IDguMTQ0NTUgMjUuNDY1MUM4LjQwNDQ4IDI1LjUgOC43MTQxIDI1LjUgOS4zMzMzMiAyNS41SDkuOTc5MTdDMTAuNTQzIDI1LjUgMTEgMjUuMDQzIDExIDI0LjQ3OTJDMTEgMjMuOTE1NCAxMC41NDMgMjMuNDU4MyA5Ljk3OTE3IDIzLjQ1ODNIOS4zMzMzMkM4LjY1MDUyIDIzLjQ1ODMgOC41MDI4MSAyMy40NTM5IDguNDA1NiAyMy40NDA5QzcuNTA4MTQgMjMuMzIwMyA2LjgwMTkyIDIyLjU5OTMgNi42ODM3NyAyMS42ODMyQzYuNjcwOTcgMjEuNTgzOSA2LjY2NjY2IDIxLjQzMzEgNi42NjY2NiAyMC43MzYxQzYuNjY2NjYgMjAuMDM5MSA2LjY3MDk3IDE5Ljg4ODMgNi42ODM3NyAxOS43ODkxQzYuODAxOTIgMTguODcyOSA3LjUwODE0IDE4LjE1MiA4LjQwNTYgMTguMDMxNEM4LjUwMjgxIDE4LjAxODMgOC42NTA1MyAxOC4wMTM5IDkuMzMzMzIgMTguMDEzOUgxMkgxN0gxOS41OTQ0QzIyLjA4NTUgMTguMDEzOSAyMy4xNzI2IDE2LjE3NjggMjMuMjk5MSAxNC40NjM1QzIzLjMzMzMgMTQgMjMuMzMzMyAxMy44ODIxIDIzLjMzMzMgMTMuMjVDMjMuMzMzMyAxMi42MTc5IDIzLjMzMzMgMTIuMzAxOCAyMy4yOTkxIDEyLjAzNjVDMjMuMTY5NCAxMS4wMzExIDIyLjY4NTggMTAuMTQzNCAyMS45NzkxIDkuNTA2OTVDMjIuNjg1OCA4Ljg3MDUxIDIzLjE2OTQgNy45ODI3NCAyMy4yOTkxIDYuOTc3NDNDMjMuMzMzMyA2LjcxMjA4IDIzLjMzMzMgNi4zOTYwMiAyMy4zMzMzIDUuNzYzODlDMjMuMzMzMyA1LjEzMTc2IDIzLjMzMzMgNC44MTU3IDIzLjI5OTEgNC41NTAzNUMyMy4wNjI4IDIuNzE4MDIgMjEuNjUwNCAxLjI3NjE2IDE5Ljg1NTQgMS4wMzQ5M0MxOS41OTU1IDEgMTkuMjg1OSAxIDE4LjY2NjcgMUg5LjMzMzMyQzguNzE0MSAxIDguNDA0NDggMSA4LjE0NDU1IDEuMDM0OTNDNi4zNDk2MiAxLjI3NjE2IDQuOTM3MTggMi43MTgwMiA0LjcwMDg4IDQuNTUwMzVDNC42NjY2NiA0LjgxNTcgNC42NjY2NiA1LjEzMTc2IDQuNjY2NjYgNS43NjM4OUM0LjY2NjY2IDYuMzk2MDIgNC42NjY2NiA2LjcxMjA4IDQuNzAwODggNi45Nzc0M1pNMTguNjY2NyAzLjA0MTY3SDkuMzMzMzJDOC42NTA1MyAzLjA0MTY3IDguNTAyODEgMy4wNDYwNyA4LjQwNTYgMy4wNTkxM0M3LjUwODE0IDMuMTc5NzUgNi44MDE5MiAzLjkwMDY4IDYuNjgzNzcgNC44MTY4NEM2LjY3MDk3IDQuOTE2MDcgNi42NjY2NiA1LjA2Njg3IDYuNjY2NjYgNS43NjM4OUM2LjY2NjY2IDYuNDYwOTEgNi42NzA5NyA2LjYxMTcxIDYuNjgzNzcgNi43MTA5NEM2LjgwMTkyIDcuNjI3MSA3LjUwODE0IDguMzQ4MDMgOC40MDU2IDguNDY4NjRDOC41MDI4MSA4LjQ4MTcxIDguNjUwNTIgOC40ODYxMSA5LjMzMzMyIDguNDg2MTFIMTguNjY2N0MxOS4zNDk1IDguNDg2MTEgMTkuNDk3MiA4LjQ4MTcxIDE5LjU5NDQgOC40Njg2NEMyMC40OTE4IDguMzQ4MDMgMjEuMTk4MSA3LjYyNzEgMjEuMzE2MiA2LjcxMDk0QzIxLjMyOSA2LjYxMTcxIDIxLjMzMzMgNi40NjA5MSAyMS4zMzMzIDUuNzYzODlDMjEuMzMzMyA1LjA2Njg3IDIxLjMyOSA0LjkxNjA3IDIxLjMxNjIgNC44MTY4NEMyMS4xOTgxIDMuOTAwNjggMjAuNDkxOCAzLjE3OTc1IDE5LjU5NDQgMy4wNTkxM0MxOS40OTcyIDMuMDQ2MDcgMTkuMzQ5NSAzLjA0MTY3IDE4LjY2NjcgMy4wNDE2N1pNMTguNjY2NyAxNS45NzIyQzE5LjM0OTUgMTUuOTcyMiAxOS40OTcyIDE1Ljk2NzggMTkuNTk0NCAxNS45NTQ4QzIwLjQ5MTggMTUuODM0MSAyMS4xOTgxIDE1LjExMzIgMjEuMzE2MiAxNC4xOTdDMjEuMzI5IDE0LjA5NzggMjEuMzMzMyAxMy45NDcgMjEuMzMzMyAxMy4yNUMyMS4zMzMzIDEyLjU1MyAyMS4zMjkgMTIuNDAyMiAyMS4zMTYyIDEyLjMwM0MyMS4xOTgxIDExLjM4NjggMjAuNDkxOCAxMC42NjU5IDE5LjU5NDQgMTAuNTQ1MkMxOS40OTcyIDEwLjUzMjIgMTkuMzQ5NSAxMC41Mjc4IDE4LjY2NjcgMTAuNTI3OEg5LjMzMzMyQzguNjUwNTMgMTAuNTI3OCA4LjUwMjgxIDEwLjUzMjIgOC40MDU2IDEwLjU0NTJDNy41MDgxNCAxMC42NjU5IDYuODAxOTIgMTEuMzg2OCA2LjY4Mzc3IDEyLjMwM0M2LjY3MDk3IDEyLjQwMjIgNi42NjY2NiAxMi41NTMgNi42NjY2NiAxMy4yNUM2LjY2NjY2IDEzLjk0NyA2LjY3MDk3IDE0LjA5NzggNi42ODM3NyAxNC4xOTdDNi44MDE5MiAxNS4xMTMyIDcuNTA4MTQgMTUuODM0MSA4LjQwNTYgMTUuOTU0OEM4LjUwMjgxIDE1Ljk2NzggOC42NTA1MiAxNS45NzIyIDkuMzMzMzIgMTUuOTcyMkgxMkgxOC42NjY3Wk0xMi42ODMxIDIwLjE3MzZDMTIuODUwNSAyMC4wMDg4IDEzLjA2MzIgMTkuOTI2MyAxMy4yOTM4IDE5LjkyNjNIMTQuODM0NkMxNS4zNjk3IDE5LjkyNjMgMTUuODY3NSAyMC4wMTY1IDE2LjMyMiAyMC4yMDQyQzE2Ljc3NjggMjAuMzg0IDE3LjE3NDkgMjAuNjQ1NyAxNy41MTE5IDIwLjk4ODdDMTcuODQ5MSAyMS4zMjYzIDE4LjEwNzIgMjEuNzI0NyAxOC4yODY0IDIyLjE3OTFDMTguNDY3MiAyMi42Mzc3IDE4LjU1NDQgMjMuMTM3IDE4LjU1NDQgMjMuNjcxN0MxOC41NTQ0IDI0LjIwNjUgMTguNDY3MiAyNC43MDc5IDE4LjI4NzEgMjUuMTcwOUwxOC4yODY0IDI1LjE3MjhDMTguMTA3MiAyNS42MjcyIDE3Ljg0OTQgMjYuMDI3NyAxNy41MTMzIDI2LjM3MDJMMTcuNTEwNSAyNi4zNzMxQzE3LjE3MzYgMjYuNzEgMTYuNzc2NCAyNi45NzA2IDE2LjMyMzQgMjcuMTU1N0wxNi4zMjA2IDI3LjE1NjhDMTUuODY2NSAyNy4zMzg1IDE1LjM2OTIgMjcuNDI1NiAxNC44MzQ2IDI3LjQyNTZIMTMuMjkzOEMxMy4wNjA4IDI3LjQyNTYgMTIuODQ2MSAyNy4zNDE1IDEyLjY3NzkgMjcuMTczM0MxMi41MDk4IDI3LjAwNTEgMTIuNDI1NiAyNi43OTA0IDEyLjQyNTYgMjYuNTU3NFYyMC43OTQ2QzEyLjQyNTYgMjAuNTY0MSAxMi41MDQ2IDIwLjM0MyAxMi42ODMxIDIwLjE3MzZaTTI0Ljc4MzUgMjMuMzA2M0MyNC45MzI4IDIzLjQwNyAyNS4wNjgxIDIzLjUyNzUgMjUuMTg3OSAyMy42NjgyQzI1LjQ5NDYgMjQuMDI4NiAyNS42Mjk5IDI0LjQ4MyAyNS42Mjk5IDI0Ljk5MTFDMjUuNjI5OSAyNS40NTI1IDI1LjUxODggMjUuODc3NCAyNS4yODYyIDI2LjI1MkMyNS4wNjI2IDI2LjYyMTMgMjQuNzQ5MyAyNi45MTA4IDI0LjM1NzkgMjcuMTJMMjQuMzUyOCAyNy4xMjI3QzIzLjk1NDggMjcuMzI4NiAyMy41MDg2IDI3LjQyNTYgMjMuMDI1MSAyNy40MjU2SDIwLjgxMTlDMjAuNTc4OSAyNy40MjU2IDIwLjM2NDIgMjcuMzQxNSAyMC4xOTYgMjcuMTczM0MyMC4wMjc4IDI3LjAwNTEgMTkuOTQzNyAyNi43OTA0IDE5Ljk0MzcgMjYuNTU3NFYyMC43OTQ2QzE5Ljk0MzcgMjAuNTY0MSAyMC4wMjI3IDIwLjM0MyAyMC4yMDExIDIwLjE3MzZDMjAuMzY4NSAyMC4wMDg4IDIwLjU4MTIgMTkuOTI2MyAyMC44MTE5IDE5LjkyNjNIMjIuODQ2M0MyMy4yODc1IDE5LjkyNjMgMjMuNjk0MyAyMC4wMTM4IDI0LjA1NDEgMjAuMjAzM0MyNC40MTMgMjAuMzgzNyAyNC43MDE5IDIwLjY0MTkgMjQuOTA5MyAyMC45NzY5QzI1LjEyNjEgMjEuMzE3NyAyNS4yMjk4IDIxLjcwNDIgMjUuMjI5OCAyMi4xMjI1QzI1LjIyOTggMjIuNDgzNiAyNS4xMjg4IDIyLjgxOSAyNC45Mjc3IDIzLjExNzNMMjQuNzgzNSAyMy4zMDYzWk0xNC4xNjIxIDIxLjU2MDdWMjUuNzkxM0gxNC44MzQ2QzE1LjI0NDQgMjUuNzkxMyAxNS41ODcxIDI1LjY5OTQgMTUuODc2MiAyNS41Mjc5QzE2LjE3OTMgMjUuMzQ1OSAxNi40MTU2IDI1LjEwMDkgMTYuNTg5NCAyNC43ODY1QzE2Ljc2MSAyNC40NzA3IDE2Ljg1MiAyNC4xMDI3IDE2Ljg1MiAyMy42NzE3QzE2Ljg1MiAyMy4yMzM0IDE2Ljc2MDMgMjIuODY2NCAxNi41OTAxIDIyLjU1OEMxNi40MTY1IDIyLjI0MzggMTYuMTgxMSAyMi4wMDIyIDE1Ljg3OTYgMjEuODI1OUwxNS44NzcxIDIxLjgyNDVDMTUuNTg3OCAyMS42NTI3IDE1LjI0NDggMjEuNTYwNyAxNC44MzQ2IDIxLjU2MDdIMTQuMTYyMVpNMjEuNjgwMiAyMS41OTQ3VjIyLjY1ODdIMjIuODQ2M0MyMy4wOTkzIDIyLjY1ODcgMjMuMjY0MSAyMi41OTc2IDIzLjM3NjcgMjIuNTFMMjMuMzgxMSAyMi41MDY2QzIzLjQ2MDQgMjIuNDQ2NiAyMy41MjczIDIyLjM0NjUgMjMuNTI3MyAyMi4xMjI1QzIzLjUyNzMgMjEuODk3OCAyMy40NjA0IDIxLjgwNDcgMjMuMzg3MSAyMS43NTEyTDIzLjM3NjYgMjEuNzQzNkMyMy4yNjQgMjEuNjU2IDIzLjA5OTMgMjEuNTk0NyAyMi44NDYzIDIxLjU5NDdIMjEuNjgwMlpNMjEuNjgwMiAyNC4zMjcxVjI1Ljc1NzJIMjMuMDI1MUMyMy4yMzY4IDI1Ljc1NzIgMjMuNDA0MyAyNS43MjA1IDIzLjUzNzYgMjUuNjU5NUMyMy42NjU3IDI1LjYwMSAyMy43NTc3IDI1LjUyMDQgMjMuODI1MSAyNS40MTU4QzIzLjg4NDQgMjUuMzIzOSAyMy45Mjc0IDI1LjE5MDUgMjMuOTI3NCAyNC45OTExQzIzLjkyNzQgMjQuODEzNCAyMy44ODY3IDI0LjcwNDUgMjMuODM2NCAyNC42MzQxQzIzLjc3NDcgMjQuNTQ3OCAyMy42ODcgMjQuNDc2NiAyMy41NTY1IDI0LjQyNDRMMjMuNTQ2OSAyNC40MjA1QzIzLjQxMTEgMjQuMzYyMyAyMy4yNDAyIDI0LjMyNzEgMjMuMDI1MSAyNC4zMjcxSDIxLjY4MDJaIiBjbGlwLXJ1bGU9ImV2ZW5vZGQiIGZpbGwtcnVsZT0iZXZlbm9kZCIvPiYjeGE7PC9zdmc+;fontSize=16;fontFamily=VK Sans Display;labelBorderColor=none;imageBorder=none;imageBackground=default;fillStyle=cross-hatch;" parent="1" vertex="1">
                    <mxGeometry x="191.5" y="650" width="28" height="28" as="geometry"/>
                </mxCell>
                <mxCell id="6" value="" style="rounded=1;whiteSpace=wrap;html=1;fontFamily=VK Sans Display;strokeColor=#E3E8F2;arcSize=12;fillColor=#FFF;spacing=12;verticalAlign=top;spacingTop=0;strokeWidth=4;spacingLeft=0;spacingBottom=0;fontStyle=1;absoluteArcSize=1;" parent="1" vertex="1">
                    <mxGeometry x="59" y="740" width="301" height="104.5" as="geometry"/>
                </mxCell>
                <mxCell id="4" value="Корпоративные системы CRM, ERP" style="shape=image;verticalLabelPosition=bottom;labelBackgroundColor=default;verticalAlign=top;aspect=fixed;imageAspect=0;image=data:image/svg+xml,PHN2ZyB4bWxucz0iaHR0cDovL3d3dy53My5vcmcvMjAwMC9zdmciIGZpbGw9Im5vbmUiIHZpZXdCb3g9IjAgMCAxOSAyMSIgaGVpZ2h0PSIyMSIgd2lkdGg9IjE5Ij4mI3hhOzxwYXRoIGZpbGw9IiMyNjg4RUIiIGQ9Ik0xMi41IDUuNUMxMi41IDMuNTY2MDMgMTAuOTM0IDIgOSAyQzcuMDY2MDMgMiA1LjUgMy41NjYwMyA1LjUgNS41QzUuNSA3LjQzMzk3IDcuMDY2MDMgOSA5IDlDMTAuOTM0IDkgMTIuNSA3LjQzMzk3IDEyLjUgNS41Wk0xNC41IDUuNUMxNC41IDguNTM4NTMgMTIuMDM4NSAxMSA5IDExQzUuOTYxNDcgMTEgMy41IDguNTM4NTMgMy41IDUuNUMzLjUgMi40NjE0NyA1Ljk2MTQ3IDAgOSAwQzEyLjAzODUgMCAxNC41IDIuNDYxNDcgMTQuNSA1LjVaTTIgMTcuNjQyOUMyIDE4LjU4NjIgMS45MTk4NyAxOC41IDIuNDU1ODggMTguNUgxNi4wNDQxQzE2LjU4MDEgMTguNSAxNi41IDE4LjU4NjIgMTYuNSAxNy42NDI5QzE2LjUgMTUuMzU0NyAxMy4xOTYgMTQgOS4yNSAxNEM1LjMwNDAyIDE0IDIgMTUuMzU0NyAyIDE3LjY0MjlaTTAgMTcuNjQyOUMwIDEzLjc2MjYgNC4yOTg5MiAxMiA5LjI1IDEyQzE0LjIwMTEgMTIgMTguNSAxMy43NjI2IDE4LjUgMTcuNjQyOUMxOC41IDE5LjY1OTMgMTcuNzE4OSAyMC41IDE2LjA0NDEgMjAuNUgyLjQ1NTg4QzAuNzgxMTA5IDIwLjUgMCAxOS42NTkzIDAgMTcuNjQyOVoiLz4mI3hhOzwvc3ZnPg==;fontFamily=VK Sans Display;fontSize=16;fontColor=#000000;" parent="1" vertex="1">
                    <mxGeometry x="196" y="756.25" width="19" height="21" as="geometry"/>
                </mxCell>
                <mxCell id="7" value="" style="rounded=1;whiteSpace=wrap;html=1;fontFamily=VK Sans Display;strokeColor=#E3E8F2;arcSize=12;fillColor=#FFF;spacing=12;verticalAlign=top;spacingTop=0;strokeWidth=4;spacingLeft=0;spacingBottom=0;fontStyle=1;absoluteArcSize=1;" parent="1" vertex="1">
                    <mxGeometry x="56" y="910" width="301" height="104.5" as="geometry"/>
                </mxCell>
                <mxCell id="8" value="" style="rounded=1;whiteSpace=wrap;html=1;fontFamily=VK Sans Display;strokeColor=#E3E8F2;arcSize=12;fillColor=#FFF;spacing=12;verticalAlign=top;spacingTop=0;strokeWidth=4;spacingLeft=0;spacingBottom=0;fontStyle=1;absoluteArcSize=1;" parent="1" vertex="1">
                    <mxGeometry x="56" y="1035.5" width="301" height="104.5" as="geometry"/>
                </mxCell>
                <mxCell id="9" value="&lt;font style=&quot;color: light-dark(rgb(0, 0, 0), rgb(237, 237, 237));&quot;&gt;&lt;span style=&quot;font-size: 16px;&quot;&gt;Lakehouse&lt;/span&gt;&lt;/font&gt;" style="rounded=1;whiteSpace=wrap;html=1;fontFamily=VK Sans Display;strokeColor=none;arcSize=12;fillColor=#F6F7F9;spacing=10;verticalAlign=top;spacingTop=0;spacingLeft=0;spacingBottom=0;fontStyle=1;arcSize=12;absoluteArcSize=1;labelBackgroundColor=none;" parent="1" vertex="1">
                    <mxGeometry x="436" y="580" width="564" height="580" as="geometry"/>
                </mxCell>
                <mxCell id="13" value="" style="rounded=1;whiteSpace=wrap;html=1;fontFamily=VK Sans Display;strokeColor=#E3E8F2;arcSize=12;fillColor=#FFF;spacing=12;verticalAlign=top;spacingTop=0;strokeWidth=4;spacingLeft=0;spacingBottom=0;fontStyle=1;absoluteArcSize=1;" parent="1" vertex="1">
                    <mxGeometry x="482" y="625.5" width="478" height="214.5" as="geometry"/>
                </mxCell>
                <mxCell id="14" value="&lt;div style=&quot;text-align: center;&quot;&gt;&lt;font style=&quot;color: rgb(0, 0, 0);&quot; face=&quot;VK Sans Display&quot;&gt;&lt;span style=&quot;font-size: 16px; text-wrap: nowrap; background-color: rgb(255, 255, 255);&quot;&gt;Движок виртуализации данных&amp;nbsp;&lt;/span&gt;&lt;/font&gt;&lt;/div&gt;" style="text;whiteSpace=wrap;html=1;" parent="1" vertex="1">
                    <mxGeometry x="598.37" y="638" width="239.25" height="40" as="geometry"/>
                </mxCell>
                <mxCell id="15" value="&lt;span style=&quot;font-size: 16px;&quot;&gt;Coordinator&lt;/span&gt;" style="rounded=1;whiteSpace=wrap;html=1;fontFamily=VK Sans Display;strokeColor=none;arcsize=12;fillColor=#F6F7F9;spacing=0;spacingTop=12;spacingBottom=12;arcSize=12;absoluteArcSize=1;" parent="1" vertex="1">
                    <mxGeometry x="741" y="725.25" width="200" height="30" as="geometry"/>
                </mxCell>
                <mxCell id="16" value="&lt;font style=&quot;font-size: 16px;&quot;&gt;Worker&lt;/font&gt;" style="rounded=1;whiteSpace=wrap;html=1;fontFamily=VK Sans Display;strokeColor=none;arcsize=12;fillColor=#F6F7F9;spacing=0;spacingTop=12;spacingBottom=12;arcSize=12;absoluteArcSize=1;" parent="1" vertex="1">
                    <mxGeometry x="741" y="776.25" width="80" height="30" as="geometry"/>
                </mxCell>
                <mxCell id="17" value="&lt;font style=&quot;font-size: 16px;&quot;&gt;Worker&lt;/font&gt;" style="rounded=1;whiteSpace=wrap;html=1;fontFamily=VK Sans Display;strokeColor=none;arcsize=12;fillColor=#F6F7F9;spacing=0;spacingTop=12;spacingBottom=12;arcSize=12;absoluteArcSize=1;" parent="1" vertex="1">
                    <mxGeometry x="851" y="776.25" width="90" height="30" as="geometry"/>
                </mxCell>
                <mxCell id="18" value="&lt;font style=&quot;font-size: 16px;&quot;&gt;Executor&lt;/font&gt;" style="rounded=1;whiteSpace=wrap;html=1;fontFamily=VK Sans Display;strokeColor=none;arcsize=12;fillColor=#F6F7F9;spacing=0;spacingTop=12;spacingBottom=12;arcSize=12;absoluteArcSize=1;" parent="1" vertex="1">
                    <mxGeometry x="619" y="775.25" width="90" height="30" as="geometry"/>
                </mxCell>
                <mxCell id="19" value="" style="rounded=1;whiteSpace=wrap;html=1;fontFamily=VK Sans Display;strokeColor=#E3E8F2;arcSize=12;fillColor=#FFF;spacing=12;verticalAlign=top;spacingTop=0;strokeWidth=4;spacingLeft=0;spacingBottom=0;fontStyle=1;absoluteArcSize=1;" parent="1" vertex="1">
                    <mxGeometry x="486" y="1050" width="474" height="74.5" as="geometry"/>
                </mxCell>
                <mxCell id="20" value="&lt;div style=&quot;text-align: center;&quot;&gt;&lt;span style=&quot;font-family: &amp;quot;VK Sans Display&amp;quot;; font-size: 16px; text-wrap: nowrap; background-color: rgb(255, 255, 255);&quot;&gt;&lt;font style=&quot;color: rgb(0, 0, 0);&quot;&gt;Хранилище S3&lt;/font&gt;&lt;/span&gt;&lt;br&gt;&lt;/div&gt;" style="text;whiteSpace=wrap;html=1;" parent="1" vertex="1">
                    <mxGeometry x="667" y="1069.5" width="112" height="22.75" as="geometry"/>
                </mxCell>
                <mxCell id="21" value="&lt;div style=&quot;color: rgb(204, 204, 204); background-color: rgb(31, 31, 31); font-family: Menlo, Monaco, &amp;quot;Courier New&amp;quot;, monospace; font-weight: normal; line-height: 18px; white-space: pre;&quot;&gt;&lt;br&gt;&lt;/div&gt;" style="rounded=1;whiteSpace=wrap;html=1;fontFamily=VK Sans Display;strokeColor=#E3E8F2;arcSize=12;fillColor=#FFF;spacing=12;verticalAlign=top;spacingTop=0;strokeWidth=4;spacingLeft=0;spacingBottom=0;fontStyle=1;absoluteArcSize=1;" parent="1" vertex="1">
                    <mxGeometry x="484" y="880" width="476" height="104.5" as="geometry"/>
                </mxCell>
                <mxCell id="22" value="&lt;div style=&quot;text-align: center;&quot;&gt;&lt;span style=&quot;font-family: &amp;quot;VK Sans Display&amp;quot;; font-size: 16px; text-wrap: nowrap;&quot;&gt;&lt;font style=&quot;color: rgb(0, 0, 0);&quot;&gt;Iceberg Metastore&lt;/font&gt;&lt;/span&gt;&lt;br&gt;&lt;/div&gt;" style="text;whiteSpace=wrap;html=1;" parent="1" vertex="1">
                    <mxGeometry x="651.25" y="910" width="141.5" height="30" as="geometry"/>
                </mxCell>
                <mxCell id="23" value="" style="shape=image;verticalLabelPosition=bottom;labelBackgroundColor=default;verticalAlign=top;aspect=fixed;imageAspect=0;image=data:image/png,iVBORw0KGgoAAAANSUhEUgAAAB4AAAAeCAYAAAA7MK6iAAAAAXNSR0IArs4c6QAAAIRlWElmTU0AKgAAAAgABQESAAMAAAABAAEAAAEaAAUAAAABAAAASgEbAAUAAAABAAAAUgEoAAMAAAABAAIAAIdpAAQAAAABAAAAWgAAAAAAAACQAAAAAQAAAJAAAAABAAOgAQADAAAAAQABAACgAgAEAAAAAQAAAB6gAwAEAAAAAQAAAB4AAAAA2HnWkAAAAAlwSFlzAAAWJQAAFiUBSVIk8AAAA4RJREFUSA3tVs1LVUEU/819TwsjImmTfWwqiBa1qTCpiP6APhYSoRAFFQnRIsinlWhoGhEJkbQIokX2RRGtAy2yoiCohVBRLcQgiCIrKT/u9DszXu+9785977Vp5YG5c2bOx2/OOTNzB5ih/5QBVRSnUddAYTfbKrZKaJTD41dzpDHG72v2HehUb4v6iiikA9fqDFagh053UX82+zL2HoFC8jHBwQQy+Ma+DqdVXygszEXdxDWbdQ987CWQOJcFPMckvhB63Ch6HGk8Y4NZjIdh6tejS/UbeZGPG/ioXseEPqKtT/fbUIFX5EfZJvCJUFUGzscfSn0uxMNlgh+i/ANH+3BWPSRfkLJOaRlrmmV6x3GeoH1oVb5Tr4nhKiZ6DC1caAX5PbS7hEa9H2fUY6fN1KTnFHrYYOY17qWChoYK55SU4CTz0EvwleQv4piuDlWSnBtYY5FJ5hjeJ01SZjrUEGM/QbtbBF5N/gJyLFkKuYGBOUZ/Hn6k2Nlp2Vhma2m7V9rVRwIfZ+XvMPK1XEA3I19sleNfd43l2Fhy1zbwoTBEdglyuAqlZffLMmTDLWUTvoY1P0CuRURRSgO2sYzStBBpnKK4jVHWs7eLtJbR707KSgYuBBfKRnAD81kOHwvDySlOYxbz1sVFJWVUSYs44cc50aN+cv4mNGvcFslOK+FaMZenvouJD8oWc/FvwAKQRomzrm3qU/RLB87pOjRzI8mvIZ/kh5HTQ7wur02LZH+UT48STOnACgdpvYn1TEaimE6FAcpD4ARUfKJ0YOAuTQfZkhHLwVF4E3ddeFQ6cKfqxhYd1+9X9uwWxnBK445CFRuVXPsB5fRW7tIqXoXBeVXYqD+jXT0IVGK92NpluTKUepx+0UklvvNIACPGoccDk+XPQ08BS10n8ZIyN7DY2otXfCXIHbHiT11xB5djGS2GjZXH3yPMS8NG7JsNJTV3UxbLTb7El4PcwD6eMrpqGu5ArR7AbTXJlLaYi0Ipmzo50wGf71ieTRlsN8Diy0FhDaPCYi+QqG7AVxkYCaSCb5U1BL5P3uMjYTP/1y8CtaB3A4u00JsrP0+yiXw+BjNYQPj1HDVwL2QJe4UPwAZxl0/5LkL5OxzmKzNDB/LKPMImju0rM/8KkdvYhiASeQz+pmYvxEcKpUccGKS9qwO59D5hFZOq8ZVtkO0631xPoioz/F/qBADfbB1bUgAAAABJRU5ErkJggg==;" parent="1" vertex="1">
                    <mxGeometry x="194.5" y="930" width="30" height="30" as="geometry"/>
                </mxCell>
                <mxCell id="24" value="" style="shape=image;verticalLabelPosition=bottom;labelBackgroundColor=default;verticalAlign=top;aspect=fixed;imageAspect=0;image=data:image/png,iVBORw0KGgoAAAANSUhEUgAAAB4AAAAeCAYAAAA7MK6iAAAAAXNSR0IArs4c6QAAAIRlWElmTU0AKgAAAAgABQESAAMAAAABAAEAAAEaAAUAAAABAAAASgEbAAUAAAABAAAAUgEoAAMAAAABAAIAAIdpAAQAAAABAAAAWgAAAAAAAACQAAAAAQAAAJAAAAABAAOgAQADAAAAAQABAACgAgAEAAAAAQAAAB6gAwAEAAAAAQAAAB4AAAAA2HnWkAAAAAlwSFlzAAAWJQAAFiUBSVIk8AAAArhJREFUSA3tVs9rE0EU/ibZREVQCgpa6b1C9ebBuxfxZAXrSUT/A3+RIOKq9UfFCiL2XBX0ICi9ebH/gFJECh492QgKWm1sdjdm/N7Obpj9kWoSAqJ9y+y8nXnv+2bem50ZYF3+9Qio3Ame1+Mo4Sg0RtDCBig+QJPvl/iOy7invFy/LhqzxFU9Rf9TLJtJXGIphHiKGvCD5POoYQKzqhG29/hKEp/RB1HGU2IJzRWWt9Q8Umv8xBbqM+zbxjKHbziJGbXSIy+hbKnqJ3BwDD4usuc+6pyhx2CLDKPI9v38esyvrSyvaLPCISUxxNZEx+eAPzJBLzCl5qTZlqRTVb8j8ShntwfX1aJtGOqudtDAAQJPknAsl9Q4yXCkyFr4xPIAN9Sk6TLvNHGNxDs4z+2YVp9tw7bu6jIC7OXgRtjmMAKS+6QUSAkmDdhN7TRLndGawG01Hxs6sRLWiuEUKRG2k7jKZ9druPoNlkKCfEufWMNMiWZdRIWYx2nYgTiG0FFe4++82lXNvGarLaDewNlw3VSo77P6GKq0yFwV7qCqvTVymPbK/5Y8a/6WJn5DtlEn4hN06F9iDCEuRGmMULPEkuUWrvK9Gm0dkWkPlfkRN5HyEr0TC7kT8V3cVF+gdcK4a2qlNCp6KCROLdcssY0ujgMSsw8PCHwt2L+EWBb/oCSFnZ6xWYcbk0u/r7Go9l5hsCOwNPHXsH0VO/sis52DNpbBjvrSq3qBf9soyxHuXEu8e9Rp16Jr9ymoMWpeeJkYj/7gBXs8SeImHrHzEDeOczxHA24hi6T18N52+QPd7FRyZRoLsQIsE+eh7ZndIKr6Gg1ky5TDXo42c7LaXr/TzUVAouTTe5n1LM/jC7Zbllh65bLn4DA3910MWJmjzbezkWxdiFskLeIDI/cct9Qzu3td/z8i8Av8+LhGlz2hLQAAAABJRU5ErkJggg==;" parent="1" vertex="1">
                    <mxGeometry x="195" y="1050" width="30" height="30" as="geometry"/>
                </mxCell>
                <mxCell id="28" value="&lt;div style=&quot;text-align: center;&quot;&gt;&lt;font face=&quot;VK Sans Display&quot;&gt;&lt;span style=&quot;font-size: 16px; text-wrap: nowrap; background-color: rgb(255, 255, 255);&quot;&gt;Неструктурированные данные:&lt;/span&gt;&lt;/font&gt;&lt;/div&gt;&lt;div style=&quot;text-align: center;&quot;&gt;&lt;font face=&quot;VK Sans Display&quot;&gt;&lt;span style=&quot;font-size: 16px; text-wrap: nowrap; background-color: rgb(255, 255, 255);&quot;&gt;&amp;nbsp;документы, медиафайлы&lt;/span&gt;&lt;/font&gt;&lt;/div&gt;" style="text;whiteSpace=wrap;html=1;" parent="1" vertex="1">
                    <mxGeometry x="89.5" y="1080" width="240" height="70" as="geometry"/>
                </mxCell>
                <mxCell id="29" value="&lt;div style=&quot;text-align: center;&quot;&gt;&lt;font face=&quot;VK Sans Display&quot;&gt;&lt;span style=&quot;font-size: 16px; text-wrap: nowrap; background-color: rgb(255, 255, 255);&quot;&gt;Полуструктурированные данные:&lt;/span&gt;&lt;/font&gt;&lt;/div&gt;&lt;div style=&quot;text-align: center;&quot;&gt;&lt;font face=&quot;VK Sans Display&quot;&gt;&lt;span style=&quot;font-size: 16px; text-wrap: nowrap; background-color: rgb(255, 255, 255);&quot;&gt;&amp;nbsp;JSON, XML, CSV&lt;/span&gt;&lt;/font&gt;&lt;/div&gt;" style="text;whiteSpace=wrap;html=1;" parent="1" vertex="1">
                    <mxGeometry x="80" y="960" width="260" height="60" as="geometry"/>
                </mxCell>
                <mxCell id="31" value="&lt;span style=&quot;font-size: 16px;&quot;&gt;&lt;font style=&quot;color: rgb(0, 0, 0);&quot;&gt;Инструменты аналитики&lt;/font&gt;&lt;/span&gt;" style="rounded=1;whiteSpace=wrap;html=1;fontFamily=VK Sans Display;strokeColor=none;arcSize=12;fillColor=#F6F7F9;spacing=10;verticalAlign=top;spacingTop=0;spacingLeft=0;spacingBottom=0;fontStyle=1;arcSize=12;absoluteArcSize=1;labelBackgroundColor=none;" parent="1" vertex="1">
                    <mxGeometry x="1110" y="790" width="290" height="370" as="geometry"/>
                </mxCell>
                <mxCell id="33" value="" style="rounded=1;whiteSpace=wrap;html=1;fontFamily=VK Sans Display;strokeColor=#E3E8F2;arcSize=12;fillColor=#FFF;spacing=12;verticalAlign=top;spacingTop=0;strokeWidth=4;spacingLeft=0;spacingBottom=0;fontStyle=1;absoluteArcSize=1;" parent="1" vertex="1">
                    <mxGeometry x="1145" y="1054.5" width="210" height="70" as="geometry"/>
                </mxCell>
                <mxCell id="34" value="&lt;div style=&quot;text-align: center;&quot;&gt;&lt;span style=&quot;font-family: &amp;quot;VK Sans Display&amp;quot;; font-size: 16px; text-wrap: nowrap; background-color: rgb(255, 255, 255);&quot;&gt;&lt;font style=&quot;color: rgb(0, 0, 0);&quot;&gt;Clickhouse&lt;/font&gt;&lt;/span&gt;&lt;br&gt;&lt;/div&gt;" style="text;whiteSpace=wrap;html=1;" parent="1" vertex="1">
                    <mxGeometry x="1210" y="1069.5" width="90" height="40" as="geometry"/>
                </mxCell>
                <mxCell id="35" value="" style="rounded=1;whiteSpace=wrap;html=1;fontFamily=VK Sans Display;strokeColor=#E3E8F2;arcSize=12;fillColor=#FFF;spacing=12;verticalAlign=top;spacingTop=0;strokeWidth=4;spacingLeft=0;spacingBottom=0;fontStyle=1;absoluteArcSize=1;" parent="1" vertex="1">
                    <mxGeometry x="1145" y="960" width="210" height="70" as="geometry"/>
                </mxCell>
                <mxCell id="36" value="" style="rounded=1;whiteSpace=wrap;html=1;fontFamily=VK Sans Display;strokeColor=#E3E8F2;arcSize=12;fillColor=#FFF;spacing=12;verticalAlign=top;spacingTop=0;strokeWidth=4;spacingLeft=0;spacingBottom=0;fontStyle=1;absoluteArcSize=1;" parent="1" vertex="1">
                    <mxGeometry x="1145" y="860" width="210" height="70" as="geometry"/>
                </mxCell>
                <mxCell id="37" value="&lt;div style=&quot;text-align: center;&quot;&gt;&lt;font style=&quot;color: rgb(0, 0, 0);&quot; face=&quot;VK Sans Display&quot;&gt;&lt;span style=&quot;font-size: 16px; text-wrap: nowrap; background-color: rgb(255, 255, 255);&quot;&gt;MLflow&lt;/span&gt;&lt;/font&gt;&lt;/div&gt;" style="text;whiteSpace=wrap;html=1;" parent="1" vertex="1">
                    <mxGeometry x="1222.5" y="880" width="55" height="30" as="geometry"/>
                </mxCell>
                <mxCell id="38" value="&lt;div style=&quot;text-align: center;&quot;&gt;&lt;span style=&quot;font-family: &amp;quot;VK Sans Display&amp;quot;; font-size: 16px; text-wrap: nowrap; background-color: rgb(255, 255, 255);&quot;&gt;&lt;font style=&quot;color: rgb(0, 0, 0);&quot;&gt;Jupyter&lt;/font&gt;&lt;/span&gt;&lt;br&gt;&lt;/div&gt;" style="text;whiteSpace=wrap;html=1;" parent="1" vertex="1">
                    <mxGeometry x="1222.5" y="980" width="55" height="40" as="geometry"/>
                </mxCell>
                <mxCell id="39" value="" style="rounded=1;whiteSpace=wrap;html=1;fontFamily=VK Sans Display;strokeColor=#E3E8F2;arcSize=12;fillColor=#FFF;spacing=12;verticalAlign=top;spacingTop=0;strokeWidth=4;spacingLeft=0;spacingBottom=0;fontStyle=1;absoluteArcSize=1;" parent="1" vertex="1">
                    <mxGeometry x="1145" y="629" width="210" height="70" as="geometry"/>
                </mxCell>
                <mxCell id="40" value="&lt;div style=&quot;text-align: center;&quot;&gt;&lt;span style=&quot;font-family: &amp;quot;VK Sans Display&amp;quot;; font-size: 16px; text-wrap: nowrap; background-color: rgb(255, 255, 255);&quot;&gt;&lt;font style=&quot;color: rgb(0, 0, 0);&quot;&gt;DataHub&lt;/font&gt;&lt;/span&gt;&lt;br&gt;&lt;/div&gt;" style="text;whiteSpace=wrap;html=1;" parent="1" vertex="1">
                    <mxGeometry x="1217.5" y="648" width="75" height="40" as="geometry"/>
                </mxCell>
                <mxCell id="47" value="" style="endArrow=none;html=1;fontFamily=VK Sans Display;fontColor=#212121;rounded=1;strokeColor=#7C8A9A;endFill=0;arcsize=8;startArrow=open;startFill=0;strokeWidth=2;arcSize=8;exitX=0.002;exitY=0.462;exitDx=0;exitDy=0;exitPerimeter=0;" parent="1" source="13" edge="1">
                    <mxGeometry width="50" height="50" relative="1" as="geometry">
                        <mxPoint x="380" y="747.75" as="sourcePoint"/>
                        <mxPoint x="359" y="670" as="targetPoint"/>
                        <Array as="points">
                            <mxPoint x="400" y="725"/>
                            <mxPoint x="400" y="670"/>
                        </Array>
                    </mxGeometry>
                </mxCell>
                <mxCell id="48" value="" style="endArrow=none;html=1;fontFamily=VK Sans Display;fontColor=#212121;rounded=1;strokeColor=#7C8A9A;endFill=0;arcsize=8;startArrow=open;startFill=0;strokeWidth=2;arcSize=8;exitX=0.002;exitY=0.462;exitDx=0;exitDy=0;exitPerimeter=0;entryX=1;entryY=0.5;entryDx=0;entryDy=0;" parent="1" target="6" edge="1">
                    <mxGeometry width="50" height="50" relative="1" as="geometry">
                        <mxPoint x="482" y="740" as="sourcePoint"/>
                        <mxPoint x="349" y="797.2499999999998" as="targetPoint"/>
                        <Array as="points">
                            <mxPoint x="399" y="740"/>
                            <mxPoint x="399" y="792"/>
                        </Array>
                    </mxGeometry>
                </mxCell>
                <mxCell id="49" value="" style="endArrow=none;html=1;fontFamily=VK Sans Display;fontColor=#212121;rounded=1;strokeColor=#7C8A9A;endFill=0;arcsize=8;startArrow=open;startFill=0;strokeWidth=2;arcSize=8;" parent="1" edge="1">
                    <mxGeometry width="50" height="50" relative="1" as="geometry">
                        <mxPoint x="486" y="1070" as="sourcePoint"/>
                        <mxPoint x="360" y="996" as="targetPoint"/>
                        <Array as="points">
                            <mxPoint x="400" y="1070"/>
                            <mxPoint x="400" y="996"/>
                        </Array>
                    </mxGeometry>
                </mxCell>
                <mxCell id="50" value="" style="endArrow=none;html=1;fontFamily=VK Sans Display;fontColor=#212121;rounded=1;strokeColor=#7C8A9A;endFill=0;arcsize=8;startArrow=open;startFill=0;strokeWidth=2;arcSize=8;exitX=0;exitY=0.433;exitDx=0;exitDy=0;exitPerimeter=0;entryX=1.002;entryY=0.793;entryDx=0;entryDy=0;entryPerimeter=0;" parent="1" source="19" target="8" edge="1">
                    <mxGeometry width="50" height="50" relative="1" as="geometry">
                        <mxPoint x="480" y="1065.5" as="sourcePoint"/>
                        <mxPoint x="360" y="1118" as="targetPoint"/>
                        <Array as="points">
                            <mxPoint x="400" y="1082"/>
                            <mxPoint x="400" y="1118"/>
                        </Array>
                    </mxGeometry>
                </mxCell>
                <mxCell id="54" value="" style="endArrow=open;html=1;fontFamily=VK Sans Display;fontColor=#212121;rounded=0;strokeColor=#7C8A9A;endFill=0;startArrow=open;startFill=0;strokeWidth=2;arcSize=8;exitX=0.5;exitY=1;exitDx=0;exitDy=0;entryX=0.197;entryY=0.011;entryDx=0;entryDy=0;entryPerimeter=0;" parent="1" edge="1">
                    <mxGeometry width="50" height="50" relative="1" as="geometry">
                        <mxPoint x="894.5" y="807.25" as="sourcePoint"/>
                        <mxPoint x="895.5" y="881.25" as="targetPoint"/>
                    </mxGeometry>
                </mxCell>
                <mxCell id="56" value="" style="endArrow=open;html=1;fontFamily=VK Sans Display;fontColor=#212121;rounded=0;strokeColor=#7C8A9A;endFill=0;startArrow=open;startFill=0;strokeWidth=2;arcSize=8;exitX=0.5;exitY=1;exitDx=0;exitDy=0;entryX=0.5;entryY=0;entryDx=0;entryDy=0;" parent="1" source="21" target="19" edge="1">
                    <mxGeometry width="50" height="50" relative="1" as="geometry">
                        <mxPoint x="719" y="990" as="sourcePoint"/>
                        <mxPoint x="718" y="1060" as="targetPoint"/>
                    </mxGeometry>
                </mxCell>
                <mxCell id="59" value="" style="endArrow=none;html=1;fontFamily=VK Sans Display;fontColor=#212121;rounded=1;strokeColor=#7C8A9A;endFill=0;arcsize=8;startArrow=open;startFill=0;strokeWidth=2;arcSize=8;exitX=0;exitY=0.5;exitDx=0;exitDy=0;" parent="1" source="33" edge="1">
                    <mxGeometry width="50" height="50" relative="1" as="geometry">
                        <mxPoint x="1050" y="1080" as="sourcePoint"/>
                        <mxPoint x="960" y="740" as="targetPoint"/>
                        <Array as="points">
                            <mxPoint x="1040" y="1090"/>
                            <mxPoint x="1040" y="740"/>
                            <mxPoint x="992" y="740"/>
                        </Array>
                    </mxGeometry>
                </mxCell>
                <mxCell id="60" value="" style="endArrow=none;html=1;fontFamily=VK Sans Display;fontColor=#212121;rounded=1;strokeColor=#7C8A9A;endFill=0;arcsize=8;startArrow=open;startFill=0;strokeWidth=2;arcSize=8;exitX=0.001;exitY=0.582;exitDx=0;exitDy=0;exitPerimeter=0;entryX=0.998;entryY=0.207;entryDx=0;entryDy=0;entryPerimeter=0;" parent="1" source="39" target="13" edge="1">
                    <mxGeometry width="50" height="50" relative="1" as="geometry">
                        <mxPoint x="1145" y="665" as="sourcePoint"/>
                        <mxPoint x="1021" y="610" as="targetPoint"/>
                        <Array as="points">
                            <mxPoint x="1060" y="670"/>
                        </Array>
                    </mxGeometry>
                </mxCell>
                <mxCell id="61" value="" style="endArrow=none;html=1;fontFamily=VK Sans Display;fontColor=#212121;rounded=1;strokeColor=#7C8A9A;endFill=0;arcsize=8;startArrow=open;startFill=0;strokeWidth=2;arcSize=8;exitX=-0.004;exitY=0.562;exitDx=0;exitDy=0;exitPerimeter=0;" parent="1" source="35" edge="1">
                    <mxGeometry width="50" height="50" relative="1" as="geometry">
                        <mxPoint x="1155" y="1100" as="sourcePoint"/>
                        <mxPoint x="960" y="740" as="targetPoint"/>
                        <Array as="points">
                            <mxPoint x="1040" y="1000"/>
                            <mxPoint x="1040" y="740"/>
                        </Array>
                    </mxGeometry>
                </mxCell>
                <mxCell id="62" value="" style="endArrow=none;html=1;fontFamily=VK Sans Display;fontColor=#212121;rounded=1;strokeColor=#7C8A9A;endFill=0;arcsize=8;startArrow=open;startFill=0;strokeWidth=2;arcSize=8;exitX=0;exitY=0.5;exitDx=0;exitDy=0;" parent="1" source="36" edge="1">
                    <mxGeometry width="50" height="50" relative="1" as="geometry">
                        <mxPoint x="1154" y="1009" as="sourcePoint"/>
                        <mxPoint x="960" y="740" as="targetPoint"/>
                        <Array as="points">
                            <mxPoint x="1040" y="895"/>
                            <mxPoint x="1040" y="740"/>
                        </Array>
                    </mxGeometry>
                </mxCell>
                <mxCell id="63" value="&lt;span style=&quot;font-family: monospace; font-size: 0px; text-align: start; background-color: rgb(251, 251, 251);&quot;&gt;%3CmxGraphModel%3E%3Croot%3E%3CmxCell%20id%3D%220%22%2F%3E%3CmxCell%20id%3D%221%22%20parent%3D%220%22%2F%3E%3CmxCell%20id%3D%222%22%20value%3D%22%22%20style%3D%22endArrow%3Dnone%3Bhtml%3D1%3BfontFamily%3DVK%20Sans%20Display%3BfontColor%3D%23212121%3Brounded%3D1%3BstrokeColor%3D%237C8A9A%3BendFill%3D0%3Barcsize%3D8%3BstartArrow%3Dopen%3BstartFill%3D0%3BstrokeWidth%3D2%3BarcSize%3D8%3BexitX%3D-0.004%3BexitY%3D0.562%3BexitDx%3D0%3BexitDy%3D0%3BexitPerimeter%3D0%3B%22%20edge%3D%221%22%20parent%3D%221%22%3E%3CmxGeometry%20width%3D%2250%22%20height%3D%2250%22%20relative%3D%221%22%20as%3D%22geometry%22%3E%3CmxPoint%20x%3D%221144%22%20y%3D%22999%22%20as%3D%22sourcePoint%22%2F%3E%3CmxPoint%20x%3D%22950%22%20y%3D%22740%22%20as%3D%22targetPoint%22%2F%3E%3CArray%20as%3D%22points%22%3E%3CmxPoint%20x%3D%221040%22%20y%3D%221000%22%2F%3E%3CmxPoint%20x%3D%221040%22%20y%3D%22740%22%2F%3E%3C%2FArray%3E%3C%2FmxGeometry%3E%3C%2FmxCell%3E%3C%2Froot%3E%3C%2FmxGraphModel%3E&lt;/span&gt;" style="edgeLabel;html=1;align=center;verticalAlign=middle;resizable=0;points=[];" parent="62" vertex="1" connectable="0">
                    <mxGeometry x="0.1665" relative="1" as="geometry">
                        <mxPoint as="offset"/>
                    </mxGeometry>
                </mxCell>
                <mxCell id="65" value="&lt;span style=&quot;font-family: monospace; font-size: 0px; text-align: start; background-color: rgb(251, 251, 251);&quot;&gt;%3CmxGraphModel%3E%3Croot%3E%3CmxCell%20id%3D%220%22%2F%3E%3CmxCell%20id%3D%221%22%20parent%3D%220%22%2F%3E%3CmxCell%20id%3D%222%22%20value%3D%22%22%20style%3D%22endArrow%3Dnone%3Bhtml%3D1%3BfontFamily%3DVK%20Sans%20Display%3BfontColor%3D%23212121%3Brounded%3D1%3BstrokeColor%3D%237C8A9A%3BendFill%3D0%3Barcsize%3D8%3BstartArrow%3Dopen%3BstartFill%3D0%3BstrokeWidth%3D2%3BarcSize%3D8%3BexitX%3D-0.004%3BexitY%3D0.562%3BexitDx%3D0%3BexitDy%3D0%3BexitPerimeter%3D0%3B%22%20edge%3D%221%22%20parent%3D%221%22%3E%3CmxGeometry%20width%3D%2250%22%20height%3D%2250%22%20relative%3D%221%22%20as%3D%22geometry%22%3E%3CmxPoint%20x%3D%221144%22%20y%3D%22999%22%20as%3D%22sourcePoint%22%2F%3E%3CmxPoint%20x%3D%22950%22%20y%3D%22740%22%20as%3D%22targetPoint%22%2F%3E%3CArray%20as%3D%22points%22%3E%3CmxPoint%20x%3D%221040%22%20y%3D%221000%22%2F%3E%3CmxPoint%20x%3D%221040%22%20y%3D%22740%22%2F%3E%3C%2FArray%3E%3C%2FmxGeometry%3E%3C%2FmxCell%3E%3C%2Froot%3E%3C%2FmxGraphModel%3E&lt;/span&gt;" style="edgeLabel;html=1;align=center;verticalAlign=middle;resizable=0;points=[];" parent="62" vertex="1" connectable="0">
                    <mxGeometry x="0.1602" y="-3" relative="1" as="geometry">
                        <mxPoint as="offset"/>
                    </mxGeometry>
                </mxCell>
                <mxCell id="66" value="&lt;span style=&quot;font-family: monospace; font-size: 0px; text-align: start; background-color: rgb(251, 251, 251);&quot;&gt;%3CmxGraphModel%3E%3Croot%3E%3CmxCell%20id%3D%220%22%2F%3E%3CmxCell%20id%3D%221%22%20parent%3D%220%22%2F%3E%3CmxCell%20id%3D%222%22%20value%3D%22%22%20style%3D%22endArrow%3Dnone%3Bhtml%3D1%3BfontFamily%3DVK%20Sans%20Display%3BfontColor%3D%23212121%3Brounded%3D1%3BstrokeColor%3D%237C8A9A%3BendFill%3D0%3Barcsize%3D8%3BstartArrow%3Dopen%3BstartFill%3D0%3BstrokeWidth%3D2%3BarcSize%3D8%3BexitX%3D-0.004%3BexitY%3D0.562%3BexitDx%3D0%3BexitDy%3D0%3BexitPerimeter%3D0%3B%22%20edge%3D%221%22%20parent%3D%221%22%3E%3CmxGeometry%20width%3D%2250%22%20height%3D%2250%22%20relative%3D%221%22%20as%3D%22geometry%22%3E%3CmxPoint%20x%3D%221144%22%20y%3D%22999%22%20as%3D%22sourcePoint%22%2F%3E%3CmxPoint%20x%3D%22950%22%20y%3D%22740%22%20as%3D%22targetPoint%22%2F%3E%3CArray%20as%3D%22points%22%3E%3CmxPoint%20x%3D%221040%22%20y%3D%221000%22%2F%3E%3CmxPoint%20x%3D%221040%22%20y%3D%22740%22%2F%3E%3C%2FArray%3E%3C%2FmxGeometry%3E%3C%2FmxCell%3E%3C%2Froot%3E%3C%2FmxGraphModel%3E&lt;/span&gt;" style="edgeLabel;html=1;align=center;verticalAlign=middle;resizable=0;points=[];" parent="62" vertex="1" connectable="0">
                    <mxGeometry x="0.2882" y="-3" relative="1" as="geometry">
                        <mxPoint as="offset"/>
                    </mxGeometry>
                </mxCell>
                <mxCell id="83" value="&lt;span style=&quot;color: rgb(63, 63, 63); font-family: &amp;quot;VK Sans Display&amp;quot;; font-size: 16px; background-color: rgb(255, 255, 255);&quot;&gt;&lt;b&gt;Cloud Trino&lt;/b&gt;&lt;/span&gt;" style="text;html=1;align=center;verticalAlign=middle;resizable=0;points=[];autosize=1;strokeColor=none;fillColor=none;" parent="1" vertex="1">
                    <mxGeometry x="786" y="689" width="110" height="30" as="geometry"/>
                </mxCell>
                <mxCell id="84" value="&lt;span style=&quot;font-size: 16px;&quot;&gt;Driver&lt;/span&gt;" style="rounded=1;whiteSpace=wrap;html=1;fontFamily=VK Sans Display;strokeColor=none;arcsize=12;fillColor=#F6F7F9;spacing=0;spacingTop=12;spacingBottom=12;arcSize=12;absoluteArcSize=1;" parent="1" vertex="1">
                    <mxGeometry x="509" y="724.25" width="200" height="30" as="geometry"/>
                </mxCell>
                <mxCell id="86" value="&lt;span style=&quot;color: rgb(63, 63, 63); font-family: &amp;quot;VK Sans Display&amp;quot;; font-size: 16px; background-color: rgb(255, 255, 255);&quot;&gt;&lt;b&gt;Cloud Spark&lt;/b&gt;&lt;/span&gt;" style="text;html=1;align=center;verticalAlign=middle;resizable=0;points=[];autosize=1;strokeColor=none;fillColor=none;" parent="1" vertex="1">
                    <mxGeometry x="549" y="688" width="120" height="30" as="geometry"/>
                </mxCell>
                <mxCell id="88" value="" style="rounded=1;whiteSpace=wrap;html=1;strokeColor=#7C8A9A;strokeWidth=1;fontColor=#212121;fillColor=none;dashed=1;arcSize=12;absoluteArcSize=1;" parent="1" vertex="1">
                    <mxGeometry x="730" y="676" width="222" height="150" as="geometry"/>
                </mxCell>
                <mxCell id="89" value="" style="rounded=1;whiteSpace=wrap;html=1;strokeColor=#7C8A9A;strokeWidth=1;fontColor=#212121;fillColor=none;dashed=1;arcSize=12;absoluteArcSize=1;" parent="1" vertex="1">
                    <mxGeometry x="490" y="676" width="231" height="150" as="geometry"/>
                </mxCell>
                <mxCell id="90" value="&lt;font style=&quot;font-size: 16px;&quot;&gt;Executor&lt;/font&gt;" style="rounded=1;whiteSpace=wrap;html=1;fontFamily=VK Sans Display;strokeColor=none;arcsize=12;fillColor=#F6F7F9;spacing=0;spacingTop=12;spacingBottom=12;arcSize=12;absoluteArcSize=1;" parent="1" vertex="1">
                    <mxGeometry x="509" y="775.25" width="90" height="30" as="geometry"/>
                </mxCell>
                <mxCell id="91" value="" style="endArrow=open;html=1;fontFamily=VK Sans Display;fontColor=#212121;rounded=0;strokeColor=#7C8A9A;endFill=0;startArrow=open;startFill=0;strokeWidth=2;arcSize=8;exitX=0.5;exitY=1;exitDx=0;exitDy=0;entryX=0.197;entryY=0.011;entryDx=0;entryDy=0;entryPerimeter=0;" parent="1" edge="1">
                    <mxGeometry width="50" height="50" relative="1" as="geometry">
                        <mxPoint x="784.5" y="806" as="sourcePoint"/>
                        <mxPoint x="785.5" y="880" as="targetPoint"/>
                    </mxGeometry>
                </mxCell>
                <mxCell id="93" value="" style="endArrow=open;html=1;fontFamily=VK Sans Display;fontColor=#212121;rounded=0;strokeColor=#7C8A9A;endFill=0;startArrow=open;startFill=0;strokeWidth=2;arcSize=8;exitX=0.5;exitY=1;exitDx=0;exitDy=0;entryX=0.197;entryY=0.011;entryDx=0;entryDy=0;entryPerimeter=0;" parent="1" edge="1">
                    <mxGeometry width="50" height="50" relative="1" as="geometry">
                        <mxPoint x="553.5" y="806" as="sourcePoint"/>
                        <mxPoint x="554.5" y="880" as="targetPoint"/>
                    </mxGeometry>
                </mxCell>
                <mxCell id="95" value="" style="endArrow=open;html=1;fontFamily=VK Sans Display;fontColor=#212121;rounded=0;strokeColor=#7C8A9A;endFill=0;startArrow=open;startFill=0;strokeWidth=2;arcSize=8;exitX=0.5;exitY=1;exitDx=0;exitDy=0;entryX=0.197;entryY=0.011;entryDx=0;entryDy=0;entryPerimeter=0;" parent="1" edge="1">
                    <mxGeometry width="50" height="50" relative="1" as="geometry">
                        <mxPoint x="663.47" y="805.25" as="sourcePoint"/>
                        <mxPoint x="664.47" y="879.25" as="targetPoint"/>
                    </mxGeometry>
                </mxCell>
                <mxCell id="112" value="&lt;font style=&quot;font-size: 17px;&quot;&gt;1&lt;/font&gt;" style="ellipse;whiteSpace=wrap;html=1;aspect=fixed;dashed=1;strokeColor=none;strokeWidth=1;fontFamily=VK Sans Display;fontColor=#212121;fillColor=#F6F7F9;" parent="1" vertex="1">
                    <mxGeometry x="390" y="717.75" width="30" height="30" as="geometry"/>
                </mxCell>
                <mxCell id="113" value="&lt;font style=&quot;font-size: 17px;&quot;&gt;2&lt;/font&gt;" style="ellipse;whiteSpace=wrap;html=1;aspect=fixed;dashed=1;strokeColor=none;strokeWidth=1;fontFamily=VK Sans Display;fontColor=#212121;fillColor=#F6F7F9;" parent="1" vertex="1">
                    <mxGeometry x="390" y="1062.25" width="30" height="30" as="geometry"/>
                </mxCell>
                <mxCell id="114" value="&lt;font style=&quot;font-size: 17px;&quot;&gt;3&lt;/font&gt;" style="ellipse;whiteSpace=wrap;html=1;aspect=fixed;dashed=1;strokeColor=none;strokeWidth=1;fontFamily=VK Sans Display;fontColor=#212121;fillColor=#F6F7F9;" parent="1" vertex="1">
                    <mxGeometry x="539" y="826" width="30" height="30" as="geometry"/>
                </mxCell>
                <mxCell id="120" value="&lt;font style=&quot;font-size: 17px;&quot;&gt;3&lt;/font&gt;" style="ellipse;whiteSpace=wrap;html=1;aspect=fixed;dashed=1;strokeColor=none;strokeWidth=1;fontFamily=VK Sans Display;fontColor=#212121;fillColor=#F6F7F9;" parent="1" vertex="1">
                    <mxGeometry x="649" y="827" width="30" height="30" as="geometry"/>
                </mxCell>
                <mxCell id="121" value="&lt;font style=&quot;font-size: 17px;&quot;&gt;3&lt;/font&gt;" style="ellipse;whiteSpace=wrap;html=1;aspect=fixed;dashed=1;strokeColor=none;strokeWidth=1;fontFamily=VK Sans Display;fontColor=#212121;fillColor=#F6F7F9;" parent="1" vertex="1">
                    <mxGeometry x="770" y="826" width="30" height="30" as="geometry"/>
                </mxCell>
                <mxCell id="122" value="&lt;font style=&quot;font-size: 17px;&quot;&gt;5&lt;/font&gt;" style="ellipse;whiteSpace=wrap;html=1;aspect=fixed;dashed=1;strokeColor=none;strokeWidth=1;fontFamily=VK Sans Display;fontColor=#212121;fillColor=#F6F7F9;" parent="1" vertex="1">
                    <mxGeometry x="1030" y="653" width="30" height="30" as="geometry"/>
                </mxCell>
                <mxCell id="124" value="&lt;font style=&quot;font-size: 17px;&quot;&gt;4&lt;/font&gt;" style="ellipse;whiteSpace=wrap;html=1;aspect=fixed;dashed=1;strokeColor=none;strokeWidth=1;fontFamily=VK Sans Display;fontColor=#212121;fillColor=#F6F7F9;" parent="1" vertex="1">
                    <mxGeometry x="707" y="1000" width="30" height="30" as="geometry"/>
                </mxCell>
                <mxCell id="125" value="&lt;font style=&quot;font-size: 17px;&quot;&gt;3&lt;/font&gt;" style="ellipse;whiteSpace=wrap;html=1;aspect=fixed;dashed=1;strokeColor=none;strokeWidth=1;fontFamily=VK Sans Display;fontColor=#212121;fillColor=#F6F7F9;" parent="1" vertex="1">
                    <mxGeometry x="881" y="827" width="30" height="30" as="geometry"/>
                </mxCell>
                <mxCell id="126" value="&lt;font style=&quot;font-size: 17px;&quot;&gt;6&lt;/font&gt;" style="ellipse;whiteSpace=wrap;html=1;aspect=fixed;dashed=1;strokeColor=none;strokeWidth=1;fontFamily=VK Sans Display;fontColor=#212121;fillColor=#F6F7F9;" parent="1" vertex="1">
                    <mxGeometry x="1030" y="790" width="30" height="30" as="geometry"/>
                </mxCell>
            </root>
        </mxGraphModel>
    </diagram>
</mxfile>